<svg width="83" height="20" viewBox="0 0 83 20" fill="none" xmlns="http://www.w3.org/2000/svg">
<path d="M5.992 2.224C8.568 2.224 10.44 2.728 11.608 3.736C12.792 4.728 13.384 6.264 13.384 8.344C13.384 10.408 12.776 11.92 11.56 12.88C10.36 13.84 8.52 14.32 6.04 14.32H3.808V19H0.0640001V2.224H5.992ZM6.328 11.08C7.576 11.08 8.424 10.832 8.872 10.336C9.32 9.824 9.544 9.088 9.544 8.128C9.544 7.152 9.248 6.464 8.656 6.064C8.08 5.648 7.176 5.44 5.944 5.44H3.808V11.08H6.328ZM24.3742 13.048V6.088H27.9982V19H24.3742V17.296C23.4782 18.56 22.3182 19.192 20.8942 19.192C19.4862 19.192 18.3022 18.752 17.3422 17.872C16.3822 16.976 15.9022 15.656 15.9022 13.912V6.088H19.5262V13.12C19.5262 15.104 20.2542 16.096 21.7102 16.096C22.4302 16.096 23.0542 15.84 23.5822 15.328C24.1102 14.8 24.3742 14.04 24.3742 13.048ZM38.9378 5.872C40.5058 5.872 41.8738 6.488 43.0418 7.72C44.2098 8.936 44.7938 10.504 44.7938 12.424C44.7938 14.344 44.1938 15.952 42.9938 17.248C41.7938 18.544 40.4258 19.192 38.8898 19.192C37.3698 19.192 36.1058 18.56 35.0978 17.296V19H31.4978V1.192H35.0978V7.528C36.0898 6.424 37.3698 5.872 38.9378 5.872ZM35.0498 12.568C35.0498 13.608 35.3378 14.464 35.9138 15.136C36.5058 15.792 37.2178 16.12 38.0498 16.12C38.8818 16.12 39.6098 15.792 40.2338 15.136C40.8578 14.464 41.1698 13.608 41.1698 12.568C41.1698 11.528 40.8658 10.656 40.2578 9.952C39.6498 9.248 38.9218 8.896 38.0738 8.896C37.2258 8.896 36.5058 9.248 35.9138 9.952C35.3378 10.64 35.0498 11.512 35.0498 12.568ZM51.1821 19H47.5821V1.192H51.1821V19ZM58.2899 19H54.6899V6.088H58.2899V19ZM54.9779 4.456C54.5779 4.04 54.3779 3.536 54.3779 2.944C54.3779 2.352 54.5779 1.856 54.9779 1.456C55.3939 1.04 55.8979 0.831999 56.4899 0.831999C57.0819 0.831999 57.5779 1.04 57.9779 1.456C58.3939 1.856 58.6019 2.352 58.6019 2.944C58.6019 3.536 58.3939 4.04 57.9779 4.456C57.5779 4.856 57.0819 5.056 56.4899 5.056C55.8979 5.056 55.3939 4.856 54.9779 4.456ZM71.5178 14.992C71.5178 16.256 71.0458 17.272 70.1018 18.04C69.1738 18.808 67.9898 19.192 66.5498 19.192C65.5898 19.192 64.5898 19.024 63.5498 18.688C62.5098 18.336 61.5738 17.824 60.7418 17.152L62.3258 14.896C63.6698 15.936 65.1018 16.456 66.6218 16.456C67.0858 16.456 67.4538 16.368 67.7258 16.192C67.9978 16 68.1338 15.752 68.1338 15.448C68.1338 15.144 67.9418 14.864 67.5578 14.608C67.1898 14.352 66.6458 14.112 65.9258 13.888C65.2218 13.664 64.6778 13.472 64.2938 13.312C63.9258 13.152 63.5018 12.92 63.0218 12.616C62.0458 12.008 61.5578 11.112 61.5578 9.928C61.5578 8.728 62.0378 7.752 62.9978 7C63.9578 6.248 65.1978 5.872 66.7178 5.872C68.2378 5.872 69.7578 6.384 71.2778 7.408L69.9338 9.808C68.8138 9.04 67.6938 8.656 66.5738 8.656C65.4698 8.656 64.9178 8.96 64.9178 9.568C64.9178 9.904 65.0938 10.168 65.4458 10.36C65.7978 10.552 66.3818 10.776 67.1978 11.032C68.0138 11.288 68.5898 11.488 68.9258 11.632C69.2778 11.76 69.6938 11.968 70.1738 12.256C71.0698 12.8 71.5178 13.712 71.5178 14.992ZM78.5687 8.68V14.464C78.5687 14.96 78.6967 15.352 78.9527 15.64C79.2087 15.912 79.5127 16.048 79.8647 16.048C80.5367 16.048 81.1047 15.744 81.5687 15.136L82.9127 17.656C81.7927 18.68 80.6087 19.192 79.3607 19.192C78.1287 19.192 77.0807 18.784 76.2167 17.968C75.3687 17.152 74.9447 16.04 74.9447 14.632V8.68H73.4327V6.088H74.9447V2.224H78.5687V6.088H81.6887V8.68H78.5687Z" fill="#252B42"/>
</svg>
