<svg width="73" height="72" viewBox="0 0 73 72" fill="none" xmlns="http://www.w3.org/2000/svg">
<rect x="0.5" width="72" height="72" rx="36" fill="white"/>
<g clip-path="url(#clip0_965_15)">
<path d="M36.4039 35.7044C39.0044 35.7044 41.0269 33.5697 41.0269 30.9499C41.0269 28.3301 38.908 26.2925 36.3076 26.2925C33.7071 26.2925 31.6846 28.4271 31.6846 30.9499C31.6846 33.5697 33.8035 35.7044 36.4039 35.7044ZM36.3076 28.2331C36.4039 28.2331 36.4039 28.2331 36.3076 28.2331C37.8486 28.2331 39.1007 29.4945 39.1007 31.047C39.1007 32.5994 37.8486 33.7638 36.3076 33.7638C34.7666 33.7638 33.6108 32.5024 33.6108 31.047C33.6108 29.4945 34.8629 28.2331 36.3076 28.2331Z" fill="#FF7B47"/>
<path d="M50.658 35.122C48.8281 33.4725 46.4203 32.5992 43.9161 32.6963H43.1456C42.953 33.4725 42.6641 34.1517 42.2788 34.7339C42.8567 34.6369 43.3383 34.6369 43.9161 34.6369C45.7461 34.5398 47.576 35.122 49.0207 36.1894V43.1755H50.947V35.4131L50.658 35.122Z" fill="#FF7B47"/>
<path d="M41.7009 26.4859C42.1825 25.3215 43.5309 24.7394 44.7829 25.2245C45.9387 25.7097 46.5166 27.0681 46.035 28.3295C45.6498 29.2027 44.7829 29.7849 43.9161 29.7849C43.7235 29.7849 43.4346 29.7849 43.2419 29.6879C43.3382 30.173 43.3382 30.6582 43.3382 31.0463V31.6285C43.5309 31.6285 43.7235 31.7255 43.9161 31.7255C46.3239 31.7255 48.2502 29.7849 48.2502 27.4562C48.2502 25.0304 46.3239 23.0898 44.0124 23.0898C42.4714 23.0898 41.123 23.8661 40.3525 25.2245C40.8341 25.5156 41.3157 25.9037 41.7009 26.4859Z" fill="#FF7B47"/>
<path d="M30.7214 34.8306C30.3361 34.2484 30.0472 33.5692 29.8546 32.793H29.0841C26.5799 32.6959 24.1721 33.5692 22.3422 35.1217L22.0532 35.4128V43.1752H23.9795V36.189C25.5205 35.1217 27.2541 34.5395 29.0841 34.6365C29.6619 34.6365 30.2398 34.7336 30.7214 34.8306Z" fill="#FF7B47"/>
<path d="M29.0837 31.6291C29.2763 31.6291 29.469 31.6291 29.6616 31.5321V30.9499C29.6616 30.4648 29.6616 29.9796 29.7579 29.5915C29.5653 29.6885 29.2763 29.6885 29.0837 29.6885C27.8316 29.6885 26.7722 28.6212 26.7722 27.3598C26.7722 26.0984 27.8316 25.0311 29.0837 25.0311C30.0468 25.0311 30.9137 25.6133 31.2989 26.4865C31.6842 26.0014 32.262 25.5162 32.7436 25.1281C31.4915 23.0905 28.8911 22.4113 26.8685 23.6727C24.8459 24.9341 24.1718 27.5539 25.4238 29.5915C26.1943 30.8529 27.5427 31.6291 29.0837 31.6291Z" fill="#FF7B47"/>
<path d="M44.3013 40.9435L44.1087 40.6524C42.1824 38.5177 39.4857 37.2563 36.5963 37.3534C33.7069 37.2563 30.9138 38.5177 28.9875 40.6524L28.7949 40.9435V48.3178C28.7949 49.1911 29.4691 49.9673 30.4322 49.9673H42.7603C43.6271 49.9673 44.3976 49.1911 44.3976 48.3178V40.9435H44.3013ZM42.375 48.0267H30.7212V41.6227C32.2622 40.0702 34.3811 39.294 36.5963 39.294C38.7152 39.1969 40.834 40.0702 42.375 41.6227V48.0267Z" fill="#FF7B47"/>
</g>
<defs>
<clipPath id="clip0_965_15">
<rect width="32" height="26.353" fill="white" transform="translate(20.5 23)"/>
</clipPath>
</defs>
</svg>
