<svg width="72" height="72" viewBox="0 0 72 72" fill="none" xmlns="http://www.w3.org/2000/svg">
<rect width="72" height="72" rx="36" fill="white"/>
<g clip-path="url(#clip0_965_30)">
<path d="M30.5427 42.6624C30.0019 42.1193 30.2838 42.2724 28.9796 41.9218C28.3879 41.7624 27.8677 41.4562 27.3973 41.0893L24.5743 48.0418C24.3011 48.7149 24.8114 49.4462 25.5344 49.4187L28.8129 49.2931L31.0678 51.6856C31.5656 52.2131 32.4392 52.0487 32.7123 51.3756L35.951 43.3993C35.2765 43.7768 34.528 43.9981 33.7539 43.9981C32.5406 43.9981 31.4007 43.5237 30.5427 42.6624ZM48.3183 48.0418L45.4953 41.0893C45.0249 41.4568 44.5047 41.7624 43.913 41.9218C42.6019 42.2743 42.8894 42.1206 42.35 42.6624C41.4919 43.5237 40.3514 43.9981 39.138 43.9981C38.364 43.9981 37.6155 43.7762 36.941 43.3993L40.1796 51.3756C40.4528 52.0487 41.327 52.2131 41.8242 51.6856L44.0797 49.2931L47.3582 49.4187C48.0812 49.4462 48.5915 48.7143 48.3183 48.0418ZM40.8641 41.2481C41.8148 40.2762 41.9237 40.3599 43.2777 39.9893C44.142 39.7524 44.8177 39.0618 45.0492 38.1781C45.5146 36.4031 45.3939 36.6174 46.6638 35.3187C47.2966 34.6718 47.5436 33.7287 47.3122 32.8449C46.8474 31.0712 46.8468 31.3187 47.3122 29.5431C47.5436 28.6593 47.2966 27.7162 46.6638 27.0693C45.3939 25.7706 45.5146 25.9843 45.0492 24.2099C44.8177 23.3262 44.142 22.6356 43.2777 22.3987C41.5429 21.9231 41.752 22.0474 40.4808 20.7481C39.848 20.1012 38.9252 19.8481 38.061 20.0849C36.3268 20.5599 36.5689 20.5606 34.8316 20.0849C33.9674 19.8481 33.0446 20.1006 32.4118 20.7481C31.1419 22.0468 31.3509 21.9231 29.6155 22.3987C28.7513 22.6356 28.0755 23.3262 27.8441 24.2099C27.3793 25.9843 27.4994 25.7706 26.2294 27.0693C25.5966 27.7162 25.349 28.6593 25.5811 29.5431C26.0459 31.3156 26.0465 31.0681 25.5811 32.8443C25.3496 33.7281 25.5966 34.6712 26.2294 35.3187C27.4994 36.6174 27.3787 36.4031 27.8441 38.1781C28.0755 39.0618 28.7513 39.7524 29.6155 39.9893C31.0081 40.3706 31.112 40.3106 32.0285 41.2481C32.8517 42.0899 34.1341 42.2406 35.1235 41.6118C35.5191 41.3595 35.978 41.2256 36.4466 41.2256C36.9152 41.2256 37.3742 41.3595 37.7698 41.6118C38.7585 42.2406 40.0409 42.0899 40.8641 41.2481ZM30.5763 30.9956C30.5763 27.6812 33.2045 24.9943 36.4463 24.9943C39.6881 24.9943 42.3163 27.6812 42.3163 30.9956C42.3163 34.3099 39.6881 36.9968 36.4463 36.9968C33.2045 36.9968 30.5763 34.3099 30.5763 30.9956Z" fill="#FF7B47"/>
</g>
<defs>
<clipPath id="clip0_965_30">
<rect width="23.8933" height="32" fill="white" transform="translate(24.5 20)"/>
</clipPath>
</defs>
</svg>
